<?xml version="1.0" encoding="UTF-8" standalone="no"?>
<!-- Created with Inkscape (http://www.inkscape.org/) -->

<svg
   width="512"
   height="512"
   viewBox="0 0 512 512"
   version="1.1"
   id="svg1"
   inkscape:version="1.4 (86a8ad7, 2024-10-11)"
   sodipodi:docname="favicon.svg"
   xmlns:inkscape="http://www.inkscape.org/namespaces/inkscape"
   xmlns:sodipodi="http://sodipodi.sourceforge.net/DTD/sodipodi-0.dtd"
   xmlns="http://www.w3.org/2000/svg"
   xmlns:svg="http://www.w3.org/2000/svg">
  <sodipodi:namedview
     id="namedview1"
     pagecolor="#ffffff"
     bordercolor="#000000"
     borderopacity="0.25"
     inkscape:showpageshadow="2"
     inkscape:pageopacity="0.0"
     inkscape:pagecheckerboard="0"
     inkscape:deskcolor="#d1d1d1"
     inkscape:document-units="px"
     inkscape:zoom="1.1255704"
     inkscape:cx="497.52554"
     inkscape:cy="342.49303"
     inkscape:window-width="1920"
     inkscape:window-height="1017"
     inkscape:window-x="-8"
     inkscape:window-y="-8"
     inkscape:window-maximized="1"
     inkscape:current-layer="text1" />
  <defs
     id="defs1" />
  <g
     inkscape:label="Layer 1"
     inkscape:groupmode="layer"
     id="layer1">
    <g
       id="text1"
       style="font-weight:200;font-size:494.528px;line-height:0.4;font-family:Nunito;-inkscape-font-specification:'Nunito Ultra-Light';letter-spacing:-21.8469px;word-spacing:0px;fill:#55d400;stroke-width:23.181"
       aria-label="{s}">
      <path
         style="fill:#999999"
         d="m 114.76683,475.65216 q -40.551298,0 -40.551298,-42.03488 v -127.0937 q 0,-20.77018 -8.901504,-30.16621 -8.901505,-9.89056 -31.649793,-10.38509 -3.956224,0 -6.923392,-2.96717 -2.472641,-2.96717 -2.472641,-6.42886 0,-3.95623 2.472641,-6.42887 2.967168,-2.96716 6.923392,-2.96716 22.748288,-0.49453 31.649793,-9.89057 8.901504,-9.89056 8.901504,-30.66073 V 80.029746 q 0,-42.034881 40.551298,-42.034881 h 34.12243 q 3.95623,0 6.92339,2.47264 2.96717,2.47264 2.96717,6.428864 0,3.956224 -2.96717,6.923392 -2.96716,2.47264 -6.92339,2.47264 h -31.64979 q -22.253761,0 -22.253761,22.748289 V 208.1125 q 0,19.28659 -9.396033,32.14432 -8.901504,12.85773 -23.737344,16.31943 14.83584,3.46169 23.737344,16.31942 9.396033,12.85773 9.396033,32.14432 v 129.56634 q 0,22.74829 22.253761,22.74829 h 31.64979 q 3.95623,0 6.92339,2.47264 2.96717,2.96717 2.96717,6.92339 0,3.4617 -2.96717,5.93434 -2.96716,2.96717 -6.92339,2.96717 z"
         id="path4" />
      <path
         style="fill:#999999"
         d="m 364.32897,475.65216 q -3.95623,0 -6.92339,-2.96717 -2.96717,-2.47264 -2.96717,-5.93434 0,-3.95622 2.96717,-6.92339 2.96716,-2.47264 6.92339,-2.47264 h 31.64979 q 22.25376,0 22.25376,-22.74829 V 305.03999 q 0,-19.28659 8.90151,-32.14432 9.39603,-12.85773 24.23187,-16.31942 -14.83584,-3.4617 -24.23187,-16.31943 -8.90151,-12.85773 -8.90151,-32.14432 V 79.04069 q 0,-22.748289 -22.25376,-22.748289 h -31.64979 q -3.95623,0 -6.92339,-2.47264 -2.96717,-2.967168 -2.96717,-6.923392 0,-3.956224 2.96717,-6.428864 2.96716,-2.47264 6.92339,-2.47264 h 34.12243 q 40.5513,0 40.5513,42.034881 V 206.62892 q 0,20.77017 8.9015,30.66073 8.90151,9.89057 31.6498,9.89057 3.95622,0 6.42886,2.96716 2.96717,2.47264 2.96717,6.42887 0,3.46169 -2.96717,6.42886 -2.47264,2.96717 -6.42886,2.96717 -22.74829,0 -31.6498,9.89056 -8.9015,9.89056 -8.9015,30.66074 v 127.0937 q 0,42.03488 -40.5513,42.03488 z"
         id="path6" />
      <path
         style="font-weight:200;font-size:123.242px;line-height:0.4;font-family:Nunito;-inkscape-font-specification:'Nunito Ultra-Light';letter-spacing:-2px;word-spacing:0px;fill:#55d400;stroke-width:316.375"
         d="m 260.31771,393.59575 c -15.99405,0 -31.46653,-2.26004 -46.41744,-6.78005 -14.95094,-4.52006 -29.55418,-12.16937 -43.80972,-22.94797 -3.12923,-2.43387 -4.52005,-5.56311 -4.17234,-9.38778 0.69539,-3.82468 2.60771,-6.7801 5.73696,-8.86625 3.12925,-2.08616 6.78008,-1.56462 10.95243,1.56464 13.21247,9.7355 26.4249,16.51555 39.63736,20.34023 13.21247,3.82464 26.42489,5.73695 39.63736,5.73695 22.60025,0 39.8112,-4.34617 51.63289,-13.03858 12.16936,-8.69241 18.25404,-20.51407 18.25404,-35.465 0,-11.82167 -3.9985,-21.03562 -11.99553,-27.64185 -7.64932,-6.95392 -20.16637,-12.51706 -37.55118,-16.68941 L 238.93439,269.9898 c -21.90487,-5.21547 -38.07274,-13.21244 -48.5036,-23.99105 -10.08318,-10.77859 -15.12479,-24.68641 -15.12479,-41.72351 0,-21.55716 8.17087,-38.76814 24.51257,-51.63288 16.68942,-13.21246 38.7681,-19.81868 66.2361,-19.81868 15.29865,0 29.90188,2.43387 43.8097,7.3016 14.25557,4.86777 26.25106,12.16937 35.98656,21.90487 3.47696,3.47695 4.86774,7.12777 4.17235,10.95243 -0.69539,3.82467 -2.78155,6.43239 -6.25851,7.82316 -3.12924,1.3908 -6.78009,0.34769 -10.95243,-3.12927 -9.7355,-8.34471 -20.34023,-14.42939 -31.81422,-18.25402 -11.47393,-4.17235 -23.2956,-6.25855 -35.46496,-6.25855 -21.2095,0 -37.72504,4.6939 -49.54674,14.08169 -11.82166,9.04008 -17.73248,21.20945 -17.73248,36.50811 0,11.82165 3.6508,21.38329 10.95243,28.68491 7.30162,7.30164 18.94945,12.86475 34.94346,16.6894 L 287.438,259.5589 c 22.60024,5.56315 39.46351,13.38633 50.58979,23.46952 11.12627,10.08316 16.68938,23.64331 16.68938,40.6804 0,21.20949 -8.51852,38.2466 -25.55563,51.11134 -17.0371,12.51705 -39.98506,18.77559 -68.84383,18.77559 z"
         id="path5"
         sodipodi:nodetypes="ssccscsscsccccscscsscccscssccsscs" />
    </g>
  </g>
</svg>
