<?xml version="1.0" encoding="UTF-8" standalone="no"?>
<!-- Created with Inkscape (http://www.inkscape.org/) -->

<svg
   width="512"
   height="155"
   viewBox="0 0 512 155"
   version="1.1"
   id="svg1"
   inkscape:version="1.4 (86a8ad7, 2024-10-11)"
   sodipodi:docname="logo.svg"
   xmlns:inkscape="http://www.inkscape.org/namespaces/inkscape"
   xmlns:sodipodi="http://sodipodi.sourceforge.net/DTD/sodipodi-0.dtd"
   xmlns="http://www.w3.org/2000/svg"
   xmlns:svg="http://www.w3.org/2000/svg">
  <sodipodi:namedview
     id="namedview1"
     pagecolor="#ffffff"
     bordercolor="#000000"
     borderopacity="0.25"
     inkscape:showpageshadow="2"
     inkscape:pageopacity="0.0"
     inkscape:pagecheckerboard="0"
     inkscape:deskcolor="#d1d1d1"
     inkscape:document-units="px"
     inkscape:zoom="1.1255704"
     inkscape:cx="161.6958"
     inkscape:cy="188.79317"
     inkscape:window-width="1920"
     inkscape:window-height="1017"
     inkscape:window-x="-8"
     inkscape:window-y="-8"
     inkscape:window-maximized="1"
     inkscape:current-layer="layer1" />
  <defs
     id="defs1" />
  <g
     inkscape:label="Layer 1"
     inkscape:groupmode="layer"
     id="layer1">
    <g
       id="text1"
       style="font-weight:900;font-size:123.242px;line-height:0.4;font-family:'Nunito Heavy';-inkscape-font-specification:'Nunito Heavy,  Heavy';letter-spacing:-2px;word-spacing:0px;stroke-width:74.76"
       aria-label="{simpli}"
       transform="matrix(1.3812576,0,0,1.3812576,-0.01504624,-6.6963504)">
      <path
         style="font-weight:200;font-family:Nunito;-inkscape-font-specification:'Nunito Ultra-Light';fill:#808080"
         d="m 22.59275,116.29564 q -10.105844,0 -10.105844,-10.47557 V 74.14688 q 0,-5.176164 -2.218356,-7.517762 -2.2183555,-2.46484 -7.8874873,-2.588082 -0.985936,0 -1.72538796,-0.739452 -0.61620998,-0.739452 -0.61620998,-1.602146 0,-0.985936 0.61620998,-1.602146 Q 1.3951267,59.35784 2.3810627,59.35784 8.0501945,59.234598 10.26855,56.893 12.486906,54.42816 12.486906,49.251997 V 17.702045 q 0,-10.4755693 10.105844,-10.4755693 h 8.503698 q 0.985936,0 1.725388,0.61621 0.739452,0.61621 0.739452,1.602146 0,0.9859363 -0.739452,1.7253883 -0.739452,0.61621 -1.725388,0.61621 H 23.20896 q -5.54589,0 -5.54589,5.669131 v 32.166162 q 0,4.806437 -2.341598,8.010729 -2.218356,3.204292 -5.9156155,4.066986 3.6972595,0.862694 5.9156155,4.066986 2.341598,3.204292 2.341598,8.01073 v 32.289406 q 0,5.66913 5.54589,5.66913 h 7.887488 q 0.985936,0 1.725388,0.61621 0.739452,0.73945 0.739452,1.72539 0,0.86269 -0.739452,1.4789 -0.739452,0.73945 -1.725388,0.73945 z"
         id="path4" />
      <path
         style="font-weight:200;font-family:Nunito;-inkscape-font-specification:'Nunito Ultra-Light';fill:#55d400"
         d="m 60.400012,95.098019 q -5.669132,0 -10.968538,-1.602146 -5.299406,-1.602146 -10.352328,-5.422647 -1.109178,-0.862694 -0.985936,-2.218356 0.246484,-1.355662 1.355662,-2.095114 1.109178,-0.739452 2.588082,0.369726 4.683196,3.450776 9.366392,4.806438 4.683196,1.355662 9.366392,1.355662 8.010729,0 12.200957,-3.08105 4.31347,-3.08105 4.31347,-8.380456 0,-4.190228 -2.834566,-6.531826 -2.711324,-2.46484 -8.873424,-3.943744 L 55.34709,65.889666 q -7.764246,-1.84863 -11.461506,-5.669132 -3.574018,-3.820502 -3.574018,-9.859359 0,-7.641004 5.792374,-12.200958 5.915616,-4.683196 15.651734,-4.683196 5.422647,0 10.352327,1.725388 5.052922,1.725388 8.503698,5.176164 1.23242,1.23242 0.985936,2.588082 -0.246484,1.355662 -1.478904,1.84863 -1.109178,0.492968 -2.588082,-0.739452 -3.450776,-2.957808 -7.517762,-4.31347 -4.066986,-1.478904 -8.380455,-1.478904 -7.517762,0 -11.70799,3.327534 -4.190228,3.204292 -4.190228,8.62694 0,4.190227 2.588082,6.778309 2.588082,2.588082 8.257214,3.943744 l 10.229085,2.46484 q 8.01073,1.971872 11.954474,5.54589 3.943744,3.574018 3.943744,9.612876 0,7.517762 -6.038858,12.077716 -6.038858,4.436711 -16.267943,4.436711 z M 100.91855,18.195013 q -4.313471,0 -4.313471,-4.313469 0,-4.1902283 4.313471,-4.1902283 4.31347,0 4.31347,4.1902283 0,4.313469 -4.31347,4.313469 z m 0,76.286796 q -2.588083,0 -2.588083,-2.711324 v -54.96593 q 0,-2.711324 2.588083,-2.711324 2.58808,0 2.58808,2.711324 v 54.96593 q 0,2.711324 -2.58808,2.711324 z m 24.37377,0.369726 q -2.58808,0 -2.58808,-2.711324 V 36.434829 q 0,-2.711324 2.58808,-2.711324 2.46484,0 2.46484,2.711324 v 8.873424 q 2.71133,-5.792374 7.51776,-8.750182 4.92968,-3.08105 11.46151,-3.08105 14.41931,0 18.11657,12.570684 2.58808,-5.792374 7.88749,-9.119908 5.29941,-3.450776 12.44744,-3.450776 19.59548,0 19.59548,22.676527 v 35.986663 q 0,2.711324 -2.58808,2.711324 -2.58808,0 -2.58808,-2.711324 V 56.646516 q 0,-9.489633 -3.45078,-13.926345 -3.32753,-4.436712 -11.21502,-4.436712 -8.5037,0 -13.55662,5.915616 -5.05292,5.792374 -5.05292,15.651733 v 32.289403 q 0,2.711324 -2.58809,2.711324 -2.58808,0 -2.58808,-2.711324 V 56.646516 q 0,-9.489633 -3.45077,-13.926345 -3.32754,-4.436712 -11.21502,-4.436712 -8.5037,0 -13.55662,5.915616 -5.05293,5.792374 -5.05293,15.651733 v 32.289403 q 0,2.711324 -2.58808,2.711324 z m 101.03024,22.183555 q -2.58809,0 -2.58809,-2.71132 V 36.434829 q 0,-2.711324 2.58809,-2.711324 2.58808,0 2.58808,2.711324 v 9.736118 q 2.71132,-5.915616 8.25721,-9.24315 5.54589,-3.450776 13.06365,-3.450776 8.13398,0 14.04959,3.820502 5.91562,3.69726 9.11991,10.598812 3.32753,6.901551 3.32753,16.391185 0,14.17283 -7.14803,22.553286 -7.14804,8.257213 -19.349,8.257213 -7.51776,0 -13.06365,-3.327534 -5.54589,-3.450775 -8.25721,-9.366391 v 31.919676 q 0,2.71132 -2.58808,2.71132 z m 23.7857,-26.743508 q 9.85936,0 15.52849,-6.77831 5.79238,-6.901552 5.79238,-19.225752 0,-12.324199 -5.79238,-19.102509 -5.66913,-6.901552 -15.52849,-6.901552 -9.73612,0 -15.52849,6.901552 -5.79237,6.77831 -5.79237,19.102509 0,12.3242 5.79237,19.225752 5.79237,6.77831 15.52849,6.77831 z m 57.8957,4.806437 q -7.76425,0 -12.07772,-4.929679 -4.19022,-5.052922 -4.19022,-14.049588 V 9.1983477 q 0,-2.711324 2.58808,-2.711324 2.58808,0 2.58808,2.711324 V 75.256058 q 0,15.035524 11.58475,15.035524 1.23242,0 2.09511,-0.123242 0.86269,-0.123242 1.72539,-0.123242 2.09511,0 2.09511,1.848629 0,1.355662 -0.73945,1.971872 -0.73945,0.61621 -2.46484,0.985936 -0.86269,0.123242 -1.72539,0.123242 -0.73945,0.123242 -1.4789,0.123242 z m 18.21165,-76.903006 q -4.31347,0 -4.31347,-4.313469 0,-4.1902283 4.31347,-4.1902283 4.31347,0 4.31347,4.1902283 0,4.313469 -4.31347,4.313469 z m 0,76.286796 q -2.58808,0 -2.58808,-2.711324 v -54.96593 q 0,-2.711324 2.58808,-2.711324 2.58808,0 2.58808,2.711324 v 54.96593 q 0,2.711324 -2.58808,2.711324 z"
         id="path5" />
      <path
         style="font-weight:200;font-family:Nunito;-inkscape-font-specification:'Nunito Ultra-Light';fill:#808080"
         d="m 339.4976,116.29564 q -0.98594,0 -1.72539,-0.73945 -0.73945,-0.61621 -0.73945,-1.4789 0,-0.98594 0.73945,-1.72539 0.73945,-0.61621 1.72539,-0.61621 h 7.88749 q 5.54589,0 5.54589,-5.66913 V 73.777154 q 0,-4.806438 2.21835,-8.01073 2.3416,-3.204292 6.03886,-4.066986 -3.69726,-0.862694 -6.03886,-4.066986 -2.21835,-3.204292 -2.21835,-8.010729 V 17.455561 q 0,-5.669131 -5.54589,-5.669131 h -7.88749 q -0.98594,0 -1.72539,-0.61621 -0.73945,-0.739452 -0.73945,-1.7253883 0,-0.985936 0.73945,-1.602146 0.73945,-0.61621 1.72539,-0.61621 h 8.5037 q 10.10584,0 10.10584,10.4755693 v 31.549952 q 0,5.176163 2.21836,7.641003 2.21835,2.46484 7.88749,2.46484 0.98593,0 1.60214,0.739452 0.73945,0.61621 0.73945,1.602146 0,0.862694 -0.73945,1.602146 -0.61621,0.739452 -1.60214,0.739452 -5.66914,0 -7.88749,2.46484 -2.21836,2.46484 -2.21836,7.641004 v 31.67319 q 0,10.47557 -10.10584,10.47557 z"
         id="path6" />
    </g>
  </g>
</svg>
